<svg xmlns="http://www.w3.org/2000/svg" viewBox="0 0 100 100" width="100" height="100">
  <defs>
    <linearGradient id="g" x1="0%" y1="0%" x2="100%" y2="100%">
      <stop offset="0%" stop-color="#818cf8"/>
      <stop offset="100%" stop-color="#4f46e5"/>
    </linearGradient>
  </defs>
  <rect width="100" height="100" rx="22" fill="url(#g)"/>
  <path d="M30 25v10M70 25v10M25 40h50M25 33h50a8 8 0 0 1 8 8v34a8 8 0 0 1-8 8H25a8 8 0 0 1-8-8V41a8 8 0 0 1 8-8z" fill="none" stroke="#ffffff" stroke-width="6" stroke-linecap="round" stroke-linejoin="round"/>
  <circle cx="38" cy="54" r="5" fill="#ffffff"/>
  <circle cx="50" cy="54" r="5" fill="#ffffff"/>
  <circle cx="62" cy="54" r="5" fill="#ffffff"/>
  <circle cx="38" cy="66" r="5" fill="#ffffff"/>
  <circle cx="50" cy="66" r="5" fill="#ffffff"/>
  <circle cx="62" cy="66" r="5" fill="#ffffff"/>
</svg>
